<?xml version="1.0" standalone="no"?>
<!DOCTYPE svg PUBLIC "-//W3C//DTD SVG 1.1//EN" "http://www.w3.org/Graphics/SVG/1.1/DTD/svg11.dtd">
<svg xmlns="http://www.w3.org/2000/svg" width="701" height="411" viewBox="0 0 701 411" fill="none">
<path d="M644.997 261.131C653.722 261.131 661.626 262.643 668.71 265.666C675.88 268.69 681.754 273.311 686.333 279.531C690.22 284.801 692.596 290.243 693.459 295.858C694.323 301.387 694.755 310.457 694.755 323.07V406H657.048V320.089C657.048 312.487 655.752 306.354 653.16 301.689C649.791 295.124 643.399 291.841 633.983 291.841C624.221 291.841 616.792 295.124 611.695 301.689C606.685 308.168 604.179 317.455 604.179 329.549V406H567.379V180.648H604.179V283.159C609.535 274.953 615.712 269.251 622.709 266.055C629.793 262.772 637.222 261.131 644.997 261.131Z" fill="#393939"/>
<path d="M507.892 337.323C505.559 338.792 503.184 340.001 500.765 340.951C498.432 341.815 495.193 342.636 491.046 343.413L482.753 344.968C474.979 346.35 469.407 348.035 466.038 350.022C460.336 353.391 457.485 358.617 457.485 365.701C457.485 372.007 459.213 376.586 462.669 379.436C466.21 382.201 470.487 383.583 475.497 383.583C483.444 383.583 490.744 381.25 497.396 376.586C504.134 371.921 507.633 363.412 507.892 351.058V337.323ZM485.475 320.089C492.299 319.225 497.18 318.145 500.117 316.85C505.387 314.604 508.021 311.105 508.021 306.354C508.021 300.566 505.991 296.592 501.931 294.432C497.957 292.186 492.083 291.063 484.308 291.063C475.583 291.063 469.407 293.223 465.779 297.542C463.187 300.739 461.459 305.058 460.595 310.5H424.961C425.739 298.147 429.194 287.997 435.327 280.049C445.089 267.609 461.848 261.39 485.604 261.39C501.067 261.39 514.803 264.456 526.81 270.59C538.818 276.723 544.822 288.299 544.822 305.317V370.107C544.822 374.599 544.908 380.041 545.081 386.434C545.34 391.271 546.074 394.554 547.284 396.282C548.493 398.009 550.307 399.435 552.726 400.558V406H512.557C511.434 403.149 510.656 400.471 510.224 397.966C509.792 395.461 509.447 392.61 509.188 389.414C504.091 394.943 498.217 399.651 491.565 403.538C483.617 408.117 474.633 410.406 464.612 410.406C451.827 410.406 441.245 406.778 432.865 399.521C424.572 392.178 420.426 381.812 420.426 368.422C420.426 351.058 427.121 338.489 440.511 330.715C447.853 326.482 458.652 323.458 472.905 321.644L485.475 320.089Z" fill="#393939"/>
<path d="M341.761 379.955C352.559 379.955 360.852 376.111 366.64 368.422C372.428 360.734 375.322 349.806 375.322 335.639C375.322 321.471 372.428 310.587 366.64 302.985C360.852 295.296 352.559 291.452 341.761 291.452C330.963 291.452 322.626 295.296 316.752 302.985C310.964 310.587 308.07 321.471 308.07 335.639C308.07 349.806 310.964 360.734 316.752 368.422C322.626 376.111 330.963 379.955 341.761 379.955ZM414.066 335.639C414.066 356.371 408.105 374.124 396.184 388.896C384.263 403.581 366.165 410.924 341.89 410.924C317.616 410.924 299.518 403.581 287.597 388.896C275.675 374.124 269.715 356.371 269.715 335.639C269.715 315.252 275.675 297.586 287.597 282.641C299.518 267.696 317.616 260.224 341.89 260.224C366.165 260.224 384.263 267.696 396.184 282.641C408.105 297.586 414.066 315.252 414.066 335.639Z" fill="#393939"/>
<path fill-rule="evenodd" clip-rule="evenodd" d="M700.5 213.144C592 89.0002 92.5 282.144 92.5 282.144V247.144L700.5 213.144Z" fill="#038072"/>
<path d="M74 184H122.841L211.602 338.978V184H255V406H208.427L117.398 248.311V406H74V184Z" fill="#393939"/>
<path d="M20.9473 103.283C21.2891 109.387 22.7295 114.343 25.2686 118.151C30.1025 125.28 38.623 128.845 50.8301 128.845C56.2988 128.845 61.2793 128.063 65.7715 126.501C74.4629 123.474 78.8086 118.054 78.8086 110.241C78.8086 104.382 76.9775 100.207 73.3154 97.7168C69.6045 95.2754 63.7939 93.1514 55.8838 91.3447L41.3086 88.0488C31.7871 85.9004 25.0488 83.5322 21.0938 80.9443C14.2578 76.4521 10.8398 69.7383 10.8398 60.8027C10.8398 51.1348 14.1846 43.2002 20.874 36.999C27.5635 30.7979 37.0361 27.6973 49.292 27.6973C60.5713 27.6973 70.1416 30.4316 78.0029 35.9004C85.9131 41.3203 89.8682 50.0117 89.8682 61.9746H76.1719C75.4395 56.2129 73.877 51.7939 71.4844 48.7178C67.041 43.1025 59.4971 40.2949 48.8525 40.2949C40.2588 40.2949 34.082 42.1016 30.3223 45.7148C26.5625 49.3281 24.6826 53.5273 24.6826 58.3125C24.6826 63.5859 26.8799 67.4434 31.2744 69.8848C34.1553 71.4473 40.6738 73.4004 50.8301 75.7441L65.918 79.1865C73.1934 80.8467 78.8086 83.1172 82.7637 85.998C89.5996 91.0273 93.0176 98.3271 93.0176 107.897C93.0176 119.812 88.6719 128.332 79.9805 133.459C71.3379 138.586 61.2793 141.149 49.8047 141.149C36.4258 141.149 25.9521 137.731 18.3838 130.896C10.8154 124.108 7.10449 114.904 7.25098 103.283H20.9473ZM116.9 59.5576V111.633C116.9 115.637 117.535 118.908 118.805 121.447C121.148 126.135 125.519 128.479 131.915 128.479C141.095 128.479 147.345 124.377 150.665 116.174C152.472 111.779 153.375 105.749 153.375 98.083V59.5576H166.559V138H154.107L154.254 126.428C152.545 129.406 150.421 131.921 147.882 133.972C142.853 138.073 136.749 140.124 129.571 140.124C118.39 140.124 110.772 136.389 106.72 128.918C104.522 124.914 103.424 119.567 103.424 112.878V59.5576H116.9ZM214.318 129.138C220.471 129.138 225.573 126.574 229.626 121.447C233.728 116.271 235.778 108.557 235.778 98.3027C235.778 92.0527 234.875 86.6816 233.068 82.1895C229.65 73.5469 223.4 69.2256 214.318 69.2256C205.188 69.2256 198.938 73.791 195.568 82.9219C193.762 87.8047 192.858 94.0059 192.858 101.525C192.858 107.58 193.762 112.731 195.568 116.979C198.986 125.085 205.236 129.138 214.318 129.138ZM180.188 59.9238H193.005V70.3242C195.642 66.7598 198.522 64.001 201.647 62.0479C206.091 59.1182 211.315 57.6533 217.321 57.6533C226.208 57.6533 233.752 61.0713 239.953 67.9072C246.154 74.6943 249.255 84.4111 249.255 97.0576C249.255 114.147 244.787 126.354 235.852 133.679C230.188 138.317 223.596 140.637 216.076 140.637C210.168 140.637 205.212 139.343 201.208 136.755C198.864 135.29 196.252 132.775 193.371 129.211V169.274H180.188V59.9238ZM291.814 129.138C297.967 129.138 303.069 126.574 307.122 121.447C311.224 116.271 313.274 108.557 313.274 98.3027C313.274 92.0527 312.371 86.6816 310.564 82.1895C307.146 73.5469 300.896 69.2256 291.814 69.2256C282.684 69.2256 276.434 73.791 273.064 82.9219C271.258 87.8047 270.354 94.0059 270.354 101.525C270.354 107.58 271.258 112.731 273.064 116.979C276.482 125.085 282.732 129.138 291.814 129.138ZM257.684 59.9238H270.501V70.3242C273.138 66.7598 276.019 64.001 279.144 62.0479C283.587 59.1182 288.812 57.6533 294.817 57.6533C303.704 57.6533 311.248 61.0713 317.449 67.9072C323.65 74.6943 326.751 84.4111 326.751 97.0576C326.751 114.147 322.283 126.354 313.348 133.679C307.684 138.317 301.092 140.637 293.572 140.637C287.664 140.637 282.708 139.343 278.704 136.755C276.36 135.29 273.748 132.775 270.867 129.211V169.274H257.684V59.9238ZM336.571 30.4072H349.755V138H336.571V30.4072ZM412.603 59.5576H427.178C425.322 64.5869 421.196 76.0615 414.8 93.9814C410.015 107.458 406.011 118.444 402.788 126.94C395.171 146.96 389.8 159.167 386.675 163.562C383.55 167.956 378.179 170.153 370.562 170.153C368.706 170.153 367.266 170.08 366.24 169.934C365.264 169.787 364.043 169.519 362.578 169.128V157.116C364.873 157.751 366.533 158.142 367.559 158.288C368.584 158.435 369.487 158.508 370.269 158.508C372.71 158.508 374.492 158.093 375.615 157.263C376.787 156.481 377.764 155.505 378.545 154.333C378.789 153.942 379.668 151.94 381.182 148.327C382.695 144.714 383.794 142.028 384.478 140.271L355.474 59.5576H370.415L391.436 123.425L412.603 59.5576Z" fill="#393939"/>
</svg>